# xmcd
# Copyright (C) 1995-1998 Ti Kan
#
# Track frame offsets:
#       150
#       18277
#       38605
#       53368
#       67593
#       85281
#       103564
#       122516
#       142448
#       158770
#       174417
#       189798
#       205662
#       221282
#       243857
#       266692
#       281850
#       301910
#
# Disc length: 4199 seconds
#
# Revision: 0
# Processed by: cddbd v1.5.2PL0 Copyright (c) Steve Scherf et al.
# Submitted via: CD-Import v1.0
#
DISCID=e6106512
DTITLE=Kieran Goss  - The Best Of 
DYEAR=1900
DGENRE=
TTITLE0=Out Of My Head
TTITLE1=New Day
TTITLE2=Our Love Endures
TTITLE3=Brand New Star
TTITLE4=I Don't Want To Stop Loving You
TTITLE5=Close My Eyes
TTITLE6=Reasons To Leave
TTITLE7=Take A Look At My Heart
TTITLE8=Somebody's Love
TTITLE9=That's What Love Is For
TTITLE10=All That You Ask Me
TTITLE11=Hand Upon My Heart
TTITLE12=Just Around The Corner
TTITLE13=You Wait For Me
TTITLE14=I Came Through
TTITLE15=Love At A Distance
TTITLE16=Reach Out (I'll Be There)
TTITLE17=Brand New Star (A Cappella)
EXTD=
EXTT0=
EXTT1=
EXTT2=
EXTT3=
EXTT4=
EXTT5=
EXTT6=
EXTT7=
EXTT8=
EXTT9=
EXTT10=
EXTT11=
EXTT12=
EXTT13=
EXTT14=
EXTT15=
EXTT16=
EXTT17=
PLAYORDER=
